# xmcd
#
# Track frame offsets: 
#        150
#        8499
#        18914
#        29165
#        43134
#        55003
#        64329
#        75520
#        88923
#        98702
#
# Disc length: 1474 seconds
#
# Revision: 0
# Processed by: cddbd v1.5.2PL0 Copyright (c) Steve Scherf et al.
# Submitted via: ExactAudioCopy v0.95b4
#
DISCID=7605c00a
DTITLE=Johnny Cash - Classic Hitmaker
DYEAR=2006
DGENRE=Country
TTITLE0=Guess Things Happen That Way
TTITLE1=There You Go
TTITLE2=The Ways Of A Woman In Love
TTITLE3=Oney
TTITLE4=So Doggone Lonesome
TTITLE5=Luther Played The Boogie
TTITLE6=Mean Eyed Cat
TTITLE7=Look At Them Beans
TTITLE8=Born To Lose
TTITLE9=Thanks A Lot
EXTD=
EXTT0=
EXTT1=
EXTT2=
EXTT3=
EXTT4=
EXTT5=
EXTT6=
EXTT7=
EXTT8=
EXTT9=
PLAYORDER=
